<svg width="67" height="67" viewBox="0 0 67 67" fill="none" xmlns="http://www.w3.org/2000/svg">
<g id="Group 1">
<g id="Ellipse 1" filter="url(#filter0_d_101_5)">
<circle cx="33.5" cy="33.5" r="25.5" fill="white"/>
</g>
<path id="Vector" d="M32.7624 33L24.6312 24.8688C24.2895 24.5271 24.2895 23.973 24.6312 23.6314C24.9728 23.2897 25.527 23.2897 25.8686 23.6314L33.9998 31.7626L42.131 23.6314C42.4727 23.2897 43.0268 23.2897 43.3684 23.6314C43.7101 23.973 43.7101 24.5272 43.3684 24.8688L35.2372 33L43.3684 41.1312C43.7101 41.4729 43.7101 42.027 43.3684 42.3686C43.0268 42.7103 42.4726 42.7103 42.131 42.3686L33.9998 34.2374L25.8686 42.3686C25.5269 42.7103 24.9728 42.7103 24.6312 42.3686C24.2895 42.027 24.2895 41.4728 24.6312 41.1312L32.7624 33Z" fill="black"/>
</g>
<defs>
<filter id="filter0_d_101_5" x="0" y="0" width="67" height="67" filterUnits="userSpaceOnUse" color-interpolation-filters="sRGB">
<feFlood flood-opacity="0" result="BackgroundImageFix"/>
<feColorMatrix in="SourceAlpha" type="matrix" values="0 0 0 0 0 0 0 0 0 0 0 0 0 0 0 0 0 0 127 0" result="hardAlpha"/>
<feOffset/>
<feGaussianBlur stdDeviation="4"/>
<feComposite in2="hardAlpha" operator="out"/>
<feColorMatrix type="matrix" values="0 0 0 0 0 0 0 0 0 0 0 0 0 0 0 0 0 0 0.25 0"/>
<feBlend mode="normal" in2="BackgroundImageFix" result="effect1_dropShadow_101_5"/>
<feBlend mode="normal" in="SourceGraphic" in2="effect1_dropShadow_101_5" result="shape"/>
</filter>
</defs>
</svg>
