<svg width="425" height="352" viewBox="0 0 425 352" fill="none" xmlns="http://www.w3.org/2000/svg">
<g filter="url(#filter0_f_240_4898)">
<path d="M234.429 253.955C234.429 253.955 304.555 256.115 332.455 248.013C362.136 239.393 362.098 194.655 332.455 183.627C302.812 172.599 292.681 212.018 292.681 212.018" stroke="#D0D0D0" stroke-width="20" stroke-linecap="round"/>
<path d="M191.129 297.617C191.129 297.617 221.317 292.247 265.67 301.336C310.023 310.425 295.9 336.503 274.88 337.695C253.86 338.887 234.463 325.075 234.463 325.075" stroke="#D0D0D0" stroke-width="20" stroke-linecap="round"/>
<path d="M334.845 301.269H374.845" stroke="#D0D0D0" stroke-width="20" stroke-linecap="round"/>
<path d="M134.144 231.542C131.948 231.571 109.668 266.353 109.668 279.871C109.668 286.362 112.247 292.588 116.837 297.178C121.427 301.768 127.653 304.347 134.144 304.347C140.635 304.347 146.861 301.768 151.451 297.178C156.041 292.588 158.62 286.362 158.62 279.871C158.62 266.353 136.34 231.518 134.144 231.542Z" fill="#42A0F0"/>
<path d="M147.777 272.572C145.331 273.319 144.474 277.608 145.862 282.15C147.251 286.692 150.359 289.768 152.805 289.02C155.251 288.272 156.108 283.984 154.72 279.442C153.331 274.9 150.222 271.824 147.777 272.572Z" fill="white"/>
<path d="M68.2 280.629C66.388 280.649 48 309.358 48 320.516C48 325.873 50.1282 331.011 53.9164 334.799C57.7047 338.588 62.8426 340.716 68.2 340.716C73.5574 340.716 78.6953 338.588 82.4836 334.799C86.2718 331.011 88.4 325.873 88.4 320.516C88.4 309.358 70.013 280.609 68.2 280.629Z" fill="#42A0F0"/>
<path d="M79.4521 314.493C77.4335 315.11 76.7261 318.649 77.872 322.397C79.018 326.145 81.5834 328.684 83.602 328.066C85.6206 327.449 86.328 323.91 85.182 320.162C84.0361 316.414 81.4707 313.875 79.4521 314.493Z" fill="white"/>
<path d="M100.698 199.252C150.642 199.252 191.129 158.559 191.129 108.362C191.129 58.1648 150.642 17.4719 100.698 17.4719C50.7543 17.4719 10.267 58.1648 10.267 108.362C10.267 158.559 50.7543 199.252 100.698 199.252Z" fill="#FA9E42"/>
<g filter="url(#filter1_f_240_4898)">
<path d="M94.1638 95.4362C124.219 79.4727 141.029 52.3097 131.711 34.7658C122.393 17.222 90.4742 15.9409 60.4193 31.9044C30.3643 47.8679 13.554 75.0309 22.8723 92.5748C32.1906 110.119 64.1089 111.4 94.1638 95.4362Z" fill="#F8E36F"/>
</g>
<g filter="url(#filter2_d_240_4898)">
<path d="M294.344 277.769H102.912C84.3416 277.755 66.4965 270.558 53.1126 257.684C39.7287 244.81 31.8437 227.258 31.1082 208.702C30.3726 190.146 36.8437 172.025 49.1666 158.133C61.4896 144.24 78.709 135.653 97.22 134.169C99.8598 115.529 108.277 98.1856 121.288 84.5789C134.298 70.9722 151.247 61.787 169.751 58.3154C188.254 54.8438 207.38 57.2605 224.438 65.2257C241.496 73.1909 255.627 86.3036 264.844 102.719C281.749 96.867 300.014 96.1833 317.31 100.755C334.605 105.327 350.147 114.947 361.952 128.388C373.757 141.829 381.292 158.482 383.593 176.222C385.895 193.963 382.86 211.987 374.876 227.996C370.19 242.459 361.043 255.067 348.748 264.009C336.452 272.951 321.64 277.768 306.436 277.769H294.344Z" fill="url(#paint0_linear_240_4898)"/>
<path d="M306.436 276.769C314.155 276.769 321.745 275.536 328.995 273.105C336.005 270.754 342.587 267.324 348.556 262.909C354.457 258.545 359.63 253.317 363.931 247.371C368.286 241.351 371.648 234.729 373.924 227.688L373.948 227.616L373.982 227.548C377.009 221.5 379.34 215.102 380.91 208.532C382.525 201.772 383.344 194.786 383.344 187.769C383.344 181.729 382.736 175.694 381.536 169.831C380.367 164.117 378.622 158.497 376.351 153.126C374.12 147.853 371.359 142.767 368.145 138.009C364.961 133.296 361.304 128.864 357.277 124.836C353.249 120.808 348.817 117.152 344.104 113.968C339.346 110.753 334.26 107.993 328.987 105.762C323.616 103.491 317.996 101.746 312.282 100.577C306.419 99.3769 300.383 98.7685 294.344 98.7685C284.345 98.7685 274.53 100.414 265.171 103.66L264.382 103.934L263.972 103.205C256.356 89.6633 245.278 78.2907 231.936 70.3169C225.188 66.2843 217.939 63.168 210.39 61.0547C202.601 58.8745 194.511 57.769 186.344 57.769C175.36 57.769 164.637 59.746 154.474 63.6451C144.656 67.4117 135.649 72.8528 127.704 79.817C119.805 86.7413 113.25 94.9112 108.22 104.1C103.068 113.514 99.6996 123.676 98.2103 134.304L98.0988 135.099L97.298 135.162C88.3398 135.863 79.7209 138.222 71.6808 142.172C63.8684 146.011 56.8922 151.203 50.946 157.603C38.7279 170.756 31.999 187.892 31.999 205.856C31.999 215.429 33.8738 224.716 37.5713 233.458C39.3485 237.66 41.5481 241.712 44.1092 245.503C46.6462 249.258 49.5597 252.789 52.7689 255.999C55.9781 259.208 59.5094 262.121 63.2645 264.658C67.0555 267.219 71.108 269.419 75.3096 271.196C84.0515 274.894 93.3381 276.769 102.912 276.769H294.344H306.436ZM306.436 277.769H294.344H102.912C63.1956 277.769 30.999 245.572 30.999 205.856C30.999 168.055 60.1636 137.066 97.22 134.165C103.349 90.4264 140.916 56.769 186.344 56.769C220.047 56.769 249.421 75.2922 264.844 102.715C274.086 99.5096 284.011 97.7685 294.344 97.7685C344.05 97.7685 384.344 138.063 384.344 187.769C384.344 202.228 380.935 215.89 374.876 227.996C365.539 256.878 338.426 277.769 306.436 277.769Z" fill="white" fill-opacity="0.5"/>
</g>
</g>
<defs>
<filter id="filter0_f_240_4898" x="6.267" y="13.4719" width="382.578" height="338.296" filterUnits="userSpaceOnUse" color-interpolation-filters="sRGB">
<feFlood flood-opacity="0" result="BackgroundImageFix"/>
<feBlend mode="normal" in="SourceGraphic" in2="BackgroundImageFix" result="shape"/>
<feGaussianBlur stdDeviation="2" result="effect1_foregroundBlur_240_4898"/>
</filter>
<filter id="filter1_f_240_4898" x="0.301529" y="0.721924" width="153.98" height="125.897" filterUnits="userSpaceOnUse" color-interpolation-filters="sRGB">
<feFlood flood-opacity="0" result="BackgroundImageFix"/>
<feBlend mode="normal" in="SourceGraphic" in2="BackgroundImageFix" result="shape"/>
<feGaussianBlur stdDeviation="10" result="effect1_foregroundBlur_240_4898"/>
</filter>
<filter id="filter2_d_240_4898" x="10.999" y="28.769" width="413.345" height="281" filterUnits="userSpaceOnUse" color-interpolation-filters="sRGB">
<feFlood flood-opacity="0" result="BackgroundImageFix"/>
<feColorMatrix in="SourceAlpha" type="matrix" values="0 0 0 0 0 0 0 0 0 0 0 0 0 0 0 0 0 0 127 0" result="hardAlpha"/>
<feOffset dx="10" dy="2"/>
<feGaussianBlur stdDeviation="15"/>
<feColorMatrix type="matrix" values="0 0 0 0 0.258824 0 0 0 0 0.627451 0 0 0 0 0.941176 0 0 0 0.596 0"/>
<feBlend mode="normal" in2="BackgroundImageFix" result="effect1_dropShadow_240_4898"/>
<feBlend mode="normal" in="SourceGraphic" in2="effect1_dropShadow_240_4898" result="shape"/>
</filter>
<linearGradient id="paint0_linear_240_4898" x1="207.697" y1="56.7715" x2="310.34" y2="304.935" gradientUnits="userSpaceOnUse">
<stop stop-color="white" stop-opacity="0.604"/>
<stop offset="1" stop-color="white" stop-opacity="0.2"/>
</linearGradient>
</defs>
</svg>
