<svg width="293" height="194" viewBox="0 0 293 194" fill="none" xmlns="http://www.w3.org/2000/svg">
<g filter="url(#filter0_f_240_6213)">
<path d="M151.907 43.6721C151.907 43.6721 142.143 56.9081 134.512 56.4721C124.946 55.9101 123.312 44.3721 114.444 43.6721C105.166 43.8111 104.219 55.7721 94.163 56.4721C85.153 56.3111 81.336 43.8901 72.747 43.6721C64.158 43.4541 55.003 56.4721 55.003 56.4721" stroke="white" stroke-width="16" stroke-linecap="round"/>
<path d="M157.919 117.672C157.919 117.672 143.219 130.908 131.726 130.472C117.326 129.91 114.855 118.372 101.508 117.672C87.538 117.811 86.108 129.772 70.969 130.472C57.403 130.309 51.655 117.889 38.719 117.672C25.783 117.455 12 130.472 12 130.472" stroke="white" stroke-width="16" stroke-linecap="round"/>
<path d="M241.919 168.672C241.919 168.672 227.219 181.908 215.726 181.472C201.326 180.91 198.855 169.372 185.508 168.672C171.538 168.811 170.108 180.772 154.969 181.472C141.403 181.309 135.655 168.889 122.719 168.672C109.783 168.455 96 181.472 96 181.472" stroke="white" stroke-width="16" stroke-linecap="round"/>
<path d="M207.43 19.4441L244.446 111.061" stroke="#42A0F0" stroke-width="10" stroke-linecap="round"/>
<path d="M216.661 41.7655L194.301 31.8527" stroke="#42A0F0" stroke-width="10" stroke-linecap="round"/>
<path d="M216.661 41.7655L226.368 18.897" stroke="#42A0F0" stroke-width="10" stroke-linecap="round"/>
<path d="M236.402 90.6271L227.204 113.29" stroke="#42A0F0" stroke-width="10" stroke-linecap="round"/>
<path d="M236.402 90.6272L259.271 100.334" stroke="#42A0F0" stroke-width="10" stroke-linecap="round"/>
<path d="M177.385 58.6674L275.235 72.4194" stroke="#42A0F0" stroke-width="10" stroke-linecap="round"/>
<path d="M201.331 61.8339L181.567 76.2415" stroke="#42A0F0" stroke-width="10" stroke-linecap="round"/>
<path d="M201.331 61.8339L186.38 41.993" stroke="#42A0F0" stroke-width="10" stroke-linecap="round"/>
<path d="M253.517 69.1682L268.545 88.4654" stroke="#42A0F0" stroke-width="10" stroke-linecap="round"/>
<path d="M253.517 69.1682L273.358 54.217" stroke="#42A0F0" stroke-width="10" stroke-linecap="round"/>
<path d="M196.33 104.299L257.165 26.4341" stroke="#42A0F0" stroke-width="10" stroke-linecap="round"/>
<path d="M211.046 85.1441L213.641 109.464" stroke="#42A0F0" stroke-width="10" stroke-linecap="round"/>
<path d="M211.045 85.1441L186.387 88.1718" stroke="#42A0F0" stroke-width="10" stroke-linecap="round"/>
<path d="M243.49 43.6167L267.716 40.2511" stroke="#42A0F0" stroke-width="10" stroke-linecap="round"/>
<path d="M243.49 43.6167L240.463 18.9584" stroke="#42A0F0" stroke-width="10" stroke-linecap="round"/>
</g>
<defs>
<filter id="filter0_f_240_6213" x="0" y="9.89569" width="284.236" height="183.587" filterUnits="userSpaceOnUse" color-interpolation-filters="sRGB">
<feFlood flood-opacity="0" result="BackgroundImageFix"/>
<feBlend mode="normal" in="SourceGraphic" in2="BackgroundImageFix" result="shape"/>
<feGaussianBlur stdDeviation="2" result="effect1_foregroundBlur_240_6213"/>
</filter>
</defs>
</svg>
